<?xml version="1.0" encoding="UTF-8" standalone="no"?>
<svg
   width="16"
   height="16"
   viewBox="0 0 16 16"
   fill="none"
   version="1.1"
   id="svg5"
   sodipodi:docname="424480714-eef71290-a52b-48c0-a50c-132da0a0944f.svg"
   inkscape:version="1.4 (e7c3feb1, 2024-10-09)"
   xmlns:inkscape="http://www.inkscape.org/namespaces/inkscape"
   xmlns:sodipodi="http://sodipodi.sourceforge.net/DTD/sodipodi-0.dtd"
   xmlns:xlink="http://www.w3.org/1999/xlink"
   xmlns="http://www.w3.org/2000/svg"
   xmlns:svg="http://www.w3.org/2000/svg">
  <sodipodi:namedview
     id="namedview5"
     pagecolor="#ffffff"
     bordercolor="#000000"
     borderopacity="0.25"
     inkscape:showpageshadow="2"
     inkscape:pageopacity="0.0"
     inkscape:pagecheckerboard="0"
     inkscape:deskcolor="#d1d1d1"
     inkscape:zoom="34.403836"
     inkscape:cx="9.1850223"
     inkscape:cy="9.8099526"
     inkscape:window-width="2560"
     inkscape:window-height="1298"
     inkscape:window-x="1440"
     inkscape:window-y="25"
     inkscape:window-maximized="1"
     inkscape:current-layer="svg5" />
  <defs
     id="defs2">
    <linearGradient
       id="gradient_1"
       gradientUnits="userSpaceOnUse"
       x1="782"
       y1="0"
       x2="782"
       y2="1260">
      <stop
         offset="0"
         stop-color="#C86DD7"
         id="stop1" />
      <stop
         offset="0.989"
         stop-color="#3023AE"
         id="stop2" />
    </linearGradient>
    <linearGradient
       inkscape:collect="always"
       xlink:href="#gradient_1"
       id="linearGradient19"
       gradientUnits="userSpaceOnUse"
       x1="782"
       y1="0"
       x2="782"
       y2="1260" />
    <linearGradient
       inkscape:collect="always"
       xlink:href="#gradient_1"
       id="linearGradient20"
       gradientUnits="userSpaceOnUse"
       x1="782"
       y1="0"
       x2="782"
       y2="1260" />
    <linearGradient
       inkscape:collect="always"
       xlink:href="#gradient_1"
       id="linearGradient21"
       gradientUnits="userSpaceOnUse"
       x1="782"
       y1="0"
       x2="782"
       y2="1260" />
    <linearGradient
       inkscape:collect="always"
       xlink:href="#gradient_1"
       id="linearGradient22"
       gradientUnits="userSpaceOnUse"
       x1="782"
       y1="0"
       x2="782"
       y2="1260" />
    <linearGradient
       inkscape:collect="always"
       xlink:href="#gradient_1"
       id="linearGradient23"
       gradientUnits="userSpaceOnUse"
       x1="782"
       y1="0"
       x2="782"
       y2="1260" />
  </defs>
  <g
     id="g5"
     transform="matrix(0.00767263,0,0,0.00767264,0.80306972,0.761368)"
     style="stroke-width:130.332">
    <path
       id="Path"
       d="m 0,0 h 110 l 1,501 h 94 L 341,294 H 525 V 195 H 202 V 86 h 1160 v 109 h -322 l 1,98 182,1 137,207 h 93 V 0 h 111 V 611 H 1299 L 1166,402 c 0,0 -156.6699,0.12394 -235,0 V 195 H 838 V 1260 H 728 V 195 h -94 v 207 c -71.371,-0.82486 -236,0 -236,0 L 265,611 H 0 Z"
       fill="url(#gradient_1)"
       transform="translate(156,50)"
       sodipodi:nodetypes="ccccccccccccccccccccccccccccccccc"
       style="display:inline;fill:url(#linearGradient19);stroke-width:130.332" />
    <path
       id="path2"
       d="m 0,0 c 36.3,0 72.6,0 110,0 0,107.25 0,214.5 0,325 133.98,0 267.96,0 406,0 0,142.89 0,285.78 0,433 -35.97,0 -71.94,0 -109,0 0,-106.92 0,-213.84 0,-324 -133.98,0 -267.96,0 -406,0 C 0.669983,290.78 0.340027,147.56 0,0 Z"
       fill="url(#gradient_1)"
       transform="translate(680,1079)"
       style="display:inline;fill:url(#linearGradient20);stroke-width:130.332" />
    <path
       id="path3"
       d="M 0.0133057,0 H 110.013 V 764 H 1.01331 Z"
       fill="url(#gradient_1)"
       transform="translate(1085.987,546)"
       sodipodi:nodetypes="ccccc"
       style="display:inline;fill:url(#linearGradient21);stroke-width:130.332" />
    <path
       id="path4"
       d="m 204,0.124 h 110 v 231 H 0 v -231 h 110 v 123 h 94 z"
       fill="url(#gradient_1)"
       transform="translate(680,1605.876)"
       sodipodi:nodetypes="ccccccccc"
       style="display:inline;fill:url(#linearGradient22);stroke-width:130.332" />
    <path
       id="path5"
       d="m 0,0 c 36.3,0 72.6,0 110,0 0,147.18 0,294.36 0,446 -35.97,0 -71.94,0 -109,0 C 0.669983,298.82 0.340027,151.64 0,0 Z"
       fill="url(#gradient_1)"
       transform="translate(680,546)"
       style="display:inline;fill:url(#linearGradient23);stroke-width:130.332" />
  </g>
</svg>
